<mxfile host="app.diagrams.net" agent="Mozilla/5.0 (Windows NT 6.1; Win64; x64) AppleWebKit/537.36 (KHTML, like Gecko) Chrome/109.0.0.0 Safari/537.36" version="24.8.3">
  <diagram name="Page-1" id="UhaocGjNYDaVep4jxPMH">
    <mxGraphModel dx="685" dy="518" grid="1" gridSize="10" guides="1" tooltips="1" connect="1" arrows="1" fold="1" page="1" pageScale="1" pageWidth="850" pageHeight="1100" math="1" shadow="0">
      <root>
        <mxCell id="0" />
        <mxCell id="1" parent="0" />
        <mxCell id="w4-Wz256S7frgXvxM4pu-1" value="" style="verticalLabelPosition=bottom;shadow=0;dashed=0;align=center;html=1;verticalAlign=top;shape=mxgraph.electrical.transistors.nmos;pointerEvents=1;strokeWidth=2;" vertex="1" parent="1">
          <mxGeometry x="180" y="160" width="60" height="100" as="geometry" />
        </mxCell>
        <mxCell id="w4-Wz256S7frgXvxM4pu-2" value="" style="verticalLabelPosition=bottom;shadow=0;dashed=0;align=center;html=1;verticalAlign=top;shape=mxgraph.electrical.transistors.nmos;pointerEvents=1;strokeWidth=2;" vertex="1" parent="1">
          <mxGeometry x="300" y="160" width="60" height="100" as="geometry" />
        </mxCell>
        <mxCell id="w4-Wz256S7frgXvxM4pu-3" value="" style="endArrow=none;html=1;rounded=0;strokeWidth=4;" edge="1" parent="1">
          <mxGeometry width="50" height="50" relative="1" as="geometry">
            <mxPoint x="169" y="210" as="sourcePoint" />
            <mxPoint x="335" y="210" as="targetPoint" />
          </mxGeometry>
        </mxCell>
        <mxCell id="w4-Wz256S7frgXvxM4pu-5" value="" style="endArrow=none;html=1;rounded=0;exitX=1;exitY=0.076;exitDx=0;exitDy=0;exitPerimeter=0;strokeWidth=2;" edge="1" parent="1" source="w4-Wz256S7frgXvxM4pu-1">
          <mxGeometry width="50" height="50" relative="1" as="geometry">
            <mxPoint x="240" y="160" as="sourcePoint" />
            <mxPoint x="240" y="160" as="targetPoint" />
          </mxGeometry>
        </mxCell>
        <mxCell id="w4-Wz256S7frgXvxM4pu-6" value="" style="endArrow=none;html=1;rounded=0;exitX=1;exitY=0.076;exitDx=0;exitDy=0;exitPerimeter=0;strokeWidth=2;" edge="1" parent="1">
          <mxGeometry width="50" height="50" relative="1" as="geometry">
            <mxPoint x="360" y="170" as="sourcePoint" />
            <mxPoint x="360" y="160" as="targetPoint" />
          </mxGeometry>
        </mxCell>
        <mxCell id="w4-Wz256S7frgXvxM4pu-7" value="" style="verticalLabelPosition=bottom;verticalAlign=top;html=1;shape=mxgraph.flowchart.summing_function;strokeWidth=2;" vertex="1" parent="1">
          <mxGeometry x="280" y="145" width="30" height="30" as="geometry" />
        </mxCell>
        <mxCell id="w4-Wz256S7frgXvxM4pu-9" value="" style="endArrow=none;html=1;rounded=0;strokeWidth=2;" edge="1" parent="1">
          <mxGeometry width="50" height="50" relative="1" as="geometry">
            <mxPoint x="280" y="159.86" as="sourcePoint" />
            <mxPoint x="240" y="159.86" as="targetPoint" />
          </mxGeometry>
        </mxCell>
        <mxCell id="w4-Wz256S7frgXvxM4pu-10" value="" style="endArrow=none;html=1;rounded=0;strokeWidth=2;" edge="1" parent="1">
          <mxGeometry width="50" height="50" relative="1" as="geometry">
            <mxPoint x="360" y="159.88" as="sourcePoint" />
            <mxPoint x="310" y="159.88" as="targetPoint" />
          </mxGeometry>
        </mxCell>
        <mxCell id="w4-Wz256S7frgXvxM4pu-11" value="" style="endArrow=none;html=1;rounded=0;strokeWidth=4;" edge="1" parent="1">
          <mxGeometry width="50" height="50" relative="1" as="geometry">
            <mxPoint x="294.86" y="145" as="sourcePoint" />
            <mxPoint x="294.86" y="115" as="targetPoint" />
          </mxGeometry>
        </mxCell>
        <mxCell id="w4-Wz256S7frgXvxM4pu-12" value="&lt;font style=&quot;font-size: 16px;&quot;&gt;$$V_{os,add}$$&lt;/font&gt;" style="text;html=1;align=center;verticalAlign=middle;whiteSpace=wrap;rounded=0;" vertex="1" parent="1">
          <mxGeometry x="140" y="175" width="60" height="30" as="geometry" />
        </mxCell>
        <mxCell id="w4-Wz256S7frgXvxM4pu-13" value="&lt;font style=&quot;font-size: 16px;&quot;&gt;$$I_{add}$$&lt;/font&gt;" style="text;html=1;align=center;verticalAlign=middle;whiteSpace=wrap;rounded=0;" vertex="1" parent="1">
          <mxGeometry x="290" y="110" width="60" height="30" as="geometry" />
        </mxCell>
        <mxCell id="w4-Wz256S7frgXvxM4pu-14" value="&lt;font style=&quot;font-size: 16px;&quot;&gt;$$\sigma_{vth}$$&lt;/font&gt;" style="text;html=1;align=center;verticalAlign=middle;whiteSpace=wrap;rounded=0;" vertex="1" parent="1">
          <mxGeometry x="230" y="210" width="60" height="30" as="geometry" />
        </mxCell>
        <mxCell id="w4-Wz256S7frgXvxM4pu-16" value="&lt;font style=&quot;font-size: 16px;&quot;&gt;$$g_{m}$$&lt;/font&gt;" style="text;html=1;align=center;verticalAlign=middle;whiteSpace=wrap;rounded=0;" vertex="1" parent="1">
          <mxGeometry x="190" y="160" width="60" height="30" as="geometry" />
        </mxCell>
        <mxCell id="w4-Wz256S7frgXvxM4pu-17" value="" style="verticalLabelPosition=bottom;shadow=0;dashed=0;align=center;html=1;verticalAlign=top;shape=mxgraph.electrical.transistors.nmos;pointerEvents=1;strokeWidth=2;" vertex="1" parent="1">
          <mxGeometry x="517" y="160" width="60" height="100" as="geometry" />
        </mxCell>
        <mxCell id="w4-Wz256S7frgXvxM4pu-18" value="" style="verticalLabelPosition=bottom;shadow=0;dashed=0;align=center;html=1;verticalAlign=top;shape=mxgraph.electrical.transistors.nmos;pointerEvents=1;strokeWidth=2;" vertex="1" parent="1">
          <mxGeometry x="637" y="160" width="60" height="100" as="geometry" />
        </mxCell>
        <mxCell id="w4-Wz256S7frgXvxM4pu-19" value="" style="endArrow=none;html=1;rounded=0;strokeWidth=4;" edge="1" parent="1">
          <mxGeometry width="50" height="50" relative="1" as="geometry">
            <mxPoint x="482" y="210" as="sourcePoint" />
            <mxPoint x="551" y="210" as="targetPoint" />
          </mxGeometry>
        </mxCell>
        <mxCell id="w4-Wz256S7frgXvxM4pu-20" value="" style="endArrow=none;html=1;rounded=0;exitX=1;exitY=0.076;exitDx=0;exitDy=0;exitPerimeter=0;strokeWidth=2;" edge="1" parent="1" source="w4-Wz256S7frgXvxM4pu-17">
          <mxGeometry width="50" height="50" relative="1" as="geometry">
            <mxPoint x="577" y="160" as="sourcePoint" />
            <mxPoint x="577" y="160" as="targetPoint" />
          </mxGeometry>
        </mxCell>
        <mxCell id="w4-Wz256S7frgXvxM4pu-21" value="" style="endArrow=none;html=1;rounded=0;exitX=1;exitY=0.076;exitDx=0;exitDy=0;exitPerimeter=0;strokeWidth=2;" edge="1" parent="1">
          <mxGeometry width="50" height="50" relative="1" as="geometry">
            <mxPoint x="697" y="170" as="sourcePoint" />
            <mxPoint x="697" y="160" as="targetPoint" />
          </mxGeometry>
        </mxCell>
        <mxCell id="w4-Wz256S7frgXvxM4pu-22" value="" style="verticalLabelPosition=bottom;verticalAlign=top;html=1;shape=stencil(nZVNc4IwEIZ/Ta4dIGXstUP16IVDzxFXyZivCUHbf9+QSBUhiJnhsu/CPvtuYEG4aGqiAGWJIBwQ/kJZVracU3G02qYVlaFSWNFGtU+vEh9ehiFpFFTGa2eiKdkx8JnGaHmCC92bawUqatDUdFm8Rsmnvae7cFFJIcARm0HmLm+LESrss8mPL5a85R7ze419pCyBgwE9UG8mt15A2SaalC4jlRGkoaOe+4z0/TopjSOtY6aXvj+c1E15eloR1qaAH/lCYBkF/C8f4TBqpGPgcocBIC6sEvoQcbEj1emoZSv2k20CY1Q1EHyVJ1fHw2KZ7CjAxcVBaphp6EAZ8wtoZriKdKtplOjTXJ6DjnA+d259BUbFXYXVKyWc+0CDdntHWous6h4bTdyp/j/ihD8=);strokeWidth=2;" vertex="1" parent="1">
          <mxGeometry x="617" y="145" width="30" height="30" as="geometry" />
        </mxCell>
        <mxCell id="w4-Wz256S7frgXvxM4pu-23" value="" style="endArrow=none;html=1;rounded=0;strokeWidth=2;" edge="1" parent="1">
          <mxGeometry width="50" height="50" relative="1" as="geometry">
            <mxPoint x="617" y="159.86" as="sourcePoint" />
            <mxPoint x="577" y="159.86" as="targetPoint" />
          </mxGeometry>
        </mxCell>
        <mxCell id="w4-Wz256S7frgXvxM4pu-24" value="" style="endArrow=none;html=1;rounded=0;strokeWidth=2;" edge="1" parent="1">
          <mxGeometry width="50" height="50" relative="1" as="geometry">
            <mxPoint x="697" y="159.88" as="sourcePoint" />
            <mxPoint x="647" y="159.88" as="targetPoint" />
          </mxGeometry>
        </mxCell>
        <mxCell id="w4-Wz256S7frgXvxM4pu-25" value="" style="endArrow=none;html=1;rounded=0;strokeWidth=4;" edge="1" parent="1">
          <mxGeometry width="50" height="50" relative="1" as="geometry">
            <mxPoint x="631.86" y="145" as="sourcePoint" />
            <mxPoint x="631.86" y="115" as="targetPoint" />
          </mxGeometry>
        </mxCell>
        <mxCell id="w4-Wz256S7frgXvxM4pu-26" value="&lt;font style=&quot;font-size: 16px;&quot;&gt;$$V_{os,sub}$$&lt;/font&gt;" style="text;html=1;align=center;verticalAlign=middle;whiteSpace=wrap;rounded=0;" vertex="1" parent="1">
          <mxGeometry x="467" y="175" width="60" height="30" as="geometry" />
        </mxCell>
        <mxCell id="w4-Wz256S7frgXvxM4pu-27" value="&lt;font style=&quot;font-size: 16px;&quot;&gt;$$I_{sub}$$&lt;/font&gt;" style="text;html=1;align=center;verticalAlign=middle;whiteSpace=wrap;rounded=0;" vertex="1" parent="1">
          <mxGeometry x="627" y="110" width="60" height="30" as="geometry" />
        </mxCell>
        <mxCell id="w4-Wz256S7frgXvxM4pu-28" value="&lt;font style=&quot;font-size: 16px;&quot;&gt;$$\sigma_{vth}$$&lt;/font&gt;" style="text;html=1;align=center;verticalAlign=middle;whiteSpace=wrap;rounded=0;" vertex="1" parent="1">
          <mxGeometry x="567" y="210" width="60" height="30" as="geometry" />
        </mxCell>
        <mxCell id="w4-Wz256S7frgXvxM4pu-30" value="&lt;font style=&quot;font-size: 16px;&quot;&gt;$$g_{m}$$&lt;/font&gt;" style="text;html=1;align=center;verticalAlign=middle;whiteSpace=wrap;rounded=0;" vertex="1" parent="1">
          <mxGeometry x="527" y="160" width="60" height="30" as="geometry" />
        </mxCell>
        <mxCell id="w4-Wz256S7frgXvxM4pu-31" value="&lt;font style=&quot;font-size: 12px;&quot;&gt;$$W/L$$&lt;/font&gt;" style="text;html=1;align=center;verticalAlign=middle;whiteSpace=wrap;rounded=0;" vertex="1" parent="1">
          <mxGeometry x="230" y="178" width="60" height="30" as="geometry" />
        </mxCell>
        <mxCell id="w4-Wz256S7frgXvxM4pu-34" value="&lt;font style=&quot;font-size: 12px;&quot;&gt;$$W/L$$&lt;/font&gt;" style="text;html=1;align=center;verticalAlign=middle;whiteSpace=wrap;rounded=0;" vertex="1" parent="1">
          <mxGeometry x="350" y="178" width="60" height="30" as="geometry" />
        </mxCell>
        <mxCell id="w4-Wz256S7frgXvxM4pu-35" value="&lt;font style=&quot;font-size: 12px;&quot;&gt;$$W/L$$&lt;/font&gt;" style="text;html=1;align=center;verticalAlign=middle;whiteSpace=wrap;rounded=0;" vertex="1" parent="1">
          <mxGeometry x="567" y="180" width="60" height="30" as="geometry" />
        </mxCell>
        <mxCell id="w4-Wz256S7frgXvxM4pu-36" value="&lt;font style=&quot;font-size: 12px;&quot;&gt;$$W/L$$&lt;/font&gt;" style="text;html=1;align=center;verticalAlign=middle;whiteSpace=wrap;rounded=0;" vertex="1" parent="1">
          <mxGeometry x="687" y="180" width="60" height="30" as="geometry" />
        </mxCell>
      </root>
    </mxGraphModel>
  </diagram>
</mxfile>
